<?xml version="1.0" standalone="no"?>
<!DOCTYPE svg PUBLIC "-//W3C//DTD SVG 20010904//EN"
 "http://www.w3.org/TR/2001/REC-SVG-20010904/DTD/svg10.dtd">
<svg version="1.0" xmlns="http://www.w3.org/2000/svg"
 width="1000.000000pt" height="802.000000pt" viewBox="0 0 1000.000000 802.000000"
 preserveAspectRatio="xMidYMid meet">

<g transform="translate(0.000000,802.000000) scale(0.100000,-0.100000)"
fill="#000000" stroke="none">
<path d="M4925 6902 c-27 -10 -315 -137 -640 -281 -324 -145 -610 -272 -634
-283 -53 -22 -57 -18 95 -98 l100 -52 463 206 c255 113 468 206 474 206 6 0
64 -29 129 -65 116 -63 120 -65 148 -50 62 32 146 10 175 -45 43 -83 -19 -190
-110 -190 -51 0 -110 45 -120 91 -5 23 -25 38 -115 89 l-109 60 -472 -210
-471 -210 -173 95 c-95 52 -177 95 -181 95 -5 0 -147 -61 -315 -136 -331 -147
-329 -146 -329 -223 0 -49 17 -65 128 -126 l92 -49 0 -593 0 -592 -27 -15
c-35 -18 -76 -62 -96 -101 -55 -113 -2 -257 113 -308 182 -81 372 85 316 275
-16 57 -76 130 -117 143 -18 6 -19 22 -19 546 0 425 3 539 13 538 6 0 86 -42
177 -93 l165 -93 3 163 2 164 83 41 c238 120 557 204 931 246 205 22 634 22
844 -1 368 -40 748 -138 944 -243 l53 -28 5 -166 5 -166 340 193 c187 106 350
205 363 219 13 16 22 39 22 60 0 21 -9 43 -22 59 -23 25 -85 54 -1438 657
-698 311 -693 309 -795 271z"/>
<path d="M4740 5954 c-373 -34 -683 -101 -947 -206 l-103 -41 0 -463 0 -463
83 39 c45 21 130 53 189 72 l108 33 0 197 0 196 -35 35 c-29 29 -35 42 -35 78
0 77 50 128 123 129 101 1 159 -102 107 -188 -11 -18 -27 -35 -35 -38 -13 -5
-15 -37 -15 -194 l0 -187 89 18 c384 79 892 90 1316 29 255 -36 528 -110 683
-184 l72 -35 0 464 0 463 -102 40 c-156 60 -330 111 -505 147 l-33 7 0 -185 0
-185 35 -35 c31 -31 35 -41 35 -85 0 -40 -6 -57 -26 -81 -92 -110 -270 3 -209
133 10 20 26 41 36 47 18 9 19 25 19 209 0 110 -1 200 -2 200 -2 0 -55 7 -118
16 -110 15 -624 27 -730 18z"/>
<path d="M4856 4876 c-114 -43 -163 -181 -151 -426 8 -152 32 -234 82 -281 48
-46 98 -62 160 -53 78 11 83 16 83 89 l0 64 -82 3 -83 3 -20 40 c-17 34 -20
61 -20 190 0 209 19 240 138 233 l62 -3 3 61 c2 44 -1 64 -12 73 -23 19 -116
23 -160 7z"/>
<path d="M5090 4507 c0 -333 2 -376 16 -381 20 -8 68 -8 87 0 8 3 52 99 98
215 46 115 87 209 91 209 4 0 6 -96 5 -212 l-2 -213 50 0 50 0 8 343 c5 189 6
354 3 367 -5 19 -15 25 -52 31 -33 5 -49 3 -59 -7 -7 -8 -51 -108 -97 -223
l-83 -208 -5 223 -5 224 -52 3 -53 3 0 -374z"/>
<path d="M4571 4841 c-32 -6 -36 -11 -102 -160 -38 -85 -73 -159 -79 -165 -7
-7 -10 39 -10 138 l0 148 -26 -6 c-15 -4 -39 -10 -55 -13 -16 -3 -30 -13 -33
-22 -2 -9 -1 -155 2 -326 l7 -310 55 0 55 0 5 149 5 149 64 -139 c36 -76 69
-145 74 -151 6 -8 34 -13 73 -13 45 0 64 4 64 13 0 6 -38 88 -85 181 l-83 170
79 172 c43 95 79 177 79 183 0 12 -33 12 -89 2z"/>
<path d="M5587 4833 c-11 -17 -19 -677 -9 -691 12 -18 135 -34 198 -26 116 14
178 86 172 199 -3 42 -11 72 -29 100 l-26 40 29 45 c22 35 28 55 28 100 -1
140 -99 222 -286 237 -42 3 -74 2 -77 -4z m193 -149 c47 -19 60 -38 60 -88 0
-45 -22 -66 -68 -66 -79 0 -82 3 -82 91 0 77 0 79 25 79 13 0 43 -7 65 -16z
m8 -270 c45 -12 67 -98 37 -140 -17 -25 -62 -36 -105 -27 l-30 6 0 83 0 84 38
0 c20 0 47 -3 60 -6z"/>
<path d="M4155 4741 l-49 -17 -28 -150 c-31 -160 -36 -180 -44 -172 -3 3 -19
61 -35 129 -17 68 -34 127 -38 132 -10 11 -113 -34 -108 -47 3 -6 26 -78 52
-161 46 -147 65 -185 92 -185 16 0 17 -14 3 -41 -9 -15 -22 -19 -70 -19 l-60
0 0 -39 c0 -22 5 -43 11 -47 6 -3 39 -7 73 -7 79 -1 120 22 141 78 24 64 127
548 118 555 -4 4 -30 0 -58 -9z"/>
<path d="M5992 4693 l3 -57 58 -15 57 -15 0 -243 0 -243 53 0 54 0 6 222 c4
122 9 223 11 225 1 2 22 -4 46 -12 65 -23 70 -21 70 29 l0 44 -75 31 c-87 36
-250 91 -271 91 -12 0 -14 -12 -12 -57z"/>
<path d="M4770 3292 c0 -50 64 -92 140 -92 43 0 55 5 84 33 19 17 37 42 41 55
6 20 3 22 -30 22 -28 0 -42 -6 -57 -25 -11 -14 -28 -25 -39 -25 -29 0 -59 18
-59 35 0 11 -12 15 -40 15 -32 0 -40 -4 -40 -18z"/>
<path d="M1667 3164 c-4 -4 -7 -22 -7 -39 l0 -32 -75 -6 c-116 -10 -172 -45
-195 -124 -20 -66 -6 -130 39 -174 42 -42 91 -59 174 -59 l57 0 0 -55 0 -55
60 0 60 0 0 55 0 55 53 0 c145 0 220 62 220 181 0 109 -64 164 -201 176 l-71
6 -3 36 c-3 36 -3 36 -53 39 -28 2 -54 0 -58 -4z m-9 -256 l-3 -73 -34 -3
c-73 -7 -111 19 -111 75 0 55 22 73 92 73 l59 0 -3 -72z m250 56 c16 -11 22
-25 22 -53 0 -52 -26 -73 -95 -79 l-55 -4 0 76 0 76 53 0 c31 0 61 -6 75 -16z"/>
<path d="M3396 3159 c-56 -14 -105 -54 -129 -108 -29 -63 -31 -243 -4 -313 41
-106 162 -151 300 -112 13 4 17 16 17 54 l0 48 -73 -5 c-68 -5 -75 -4 -102 20
-29 25 -30 28 -33 130 -6 161 19 194 140 184 l68 -6 0 49 c0 32 -5 50 -14 53
-31 12 -133 16 -170 6z"/>
<path d="M6037 3156 c-55 -15 -90 -45 -120 -101 -19 -35 -22 -56 -22 -165 0
-139 14 -182 74 -233 59 -50 172 -57 253 -16 78 39 102 107 97 276 -4 111 -6
123 -32 161 -48 73 -152 106 -250 78z m108 -106 c38 -14 55 -65 55 -162 0
-107 -19 -149 -72 -162 -29 -7 -42 -6 -63 8 -38 25 -47 60 -43 174 3 99 4 105
31 128 31 26 52 29 92 14z"/>
<path d="M6553 3159 c-18 -5 -40 -20 -48 -32 -13 -21 -125 -460 -125 -493 0
-12 12 -14 62 -12 l61 3 46 213 c26 117 51 213 56 213 6 0 29 -86 52 -192 23
-106 44 -203 47 -216 6 -21 12 -23 66 -23 48 0 60 3 60 16 0 39 -113 480 -127
496 -16 18 -74 39 -103 37 -8 0 -30 -5 -47 -10z"/>
<path d="M7044 3159 c-17 -5 -38 -17 -47 -27 -17 -18 -138 -490 -130 -504 2
-5 31 -8 63 -8 l58 0 20 88 c11 48 32 146 48 217 15 72 29 132 31 134 9 12 20
-27 62 -221 l46 -213 63 -3 c37 -2 62 1 62 7 0 30 -113 479 -126 498 -7 12
-31 27 -51 32 -44 13 -57 12 -99 0z"/>
<path d="M7500 3161 c-101 -21 -110 -43 -110 -271 0 -199 6 -227 58 -254 39
-20 135 -29 207 -19 l60 8 0 45 0 45 -89 3 c-50 2 -96 8 -103 14 -8 6 -13 32
-13 64 l0 54 100 0 100 0 0 45 0 45 -100 0 -100 0 0 49 c0 28 6 53 13 59 7 6
53 12 103 14 l89 3 3 39 c2 21 0 42 -5 46 -12 12 -172 20 -213 11z"/>
<path d="M7996 3160 c-55 -17 -63 -34 -112 -236 l-47 -194 -28 0 -29 0 0 -100
0 -100 60 0 60 0 0 45 0 45 145 0 145 0 0 -45 0 -46 58 3 57 3 3 97 3 97 -32
3 -32 3 -44 185 c-24 102 -51 195 -59 207 -7 12 -31 27 -51 32 -44 12 -57 13
-97 1z m58 -117 c14 -51 66 -306 63 -310 -3 -2 -38 -3 -79 -1 l-74 3 35 163
c19 89 38 162 42 162 4 0 10 -8 13 -17z"/>
<path d="M948 3155 c-6 -7 87 -316 108 -357 9 -16 23 -28 34 -28 20 0 25 -15
14 -44 -5 -12 -21 -16 -75 -16 l-69 0 0 -39 c0 -29 5 -41 18 -44 84 -24 160
-13 200 26 19 19 42 82 93 254 38 125 69 234 69 241 0 8 -19 12 -60 12 l-59 0
-10 -37 c-5 -21 -21 -82 -35 -136 -13 -54 -27 -101 -30 -104 -8 -8 -13 8 -49
149 l-32 123 -55 3 c-31 2 -58 0 -62 -3z"/>
<path d="M2135 3148 c-3 -7 -4 -128 -3 -268 l3 -255 53 -3 c30 -2 60 2 67 8 8
7 52 77 97 156 l83 144 5 -153 5 -152 58 -3 57 -3 -2 268 -3 268 -59 0 -58 0
-92 -159 -91 -158 -5 158 -5 159 -53 3 c-36 2 -54 -1 -57 -10z"/>
<path d="M2667 3153 c-4 -3 -7 -125 -7 -270 l0 -263 60 0 60 0 0 163 c1 179 2
180 56 75 24 -47 25 -48 72 -48 l47 0 35 65 35 65 5 -157 5 -158 58 -3 57 -3
-2 268 -3 268 -52 3 c-60 3 -53 11 -133 -142 -25 -47 -48 -86 -52 -86 -4 0
-34 52 -68 115 l-61 115 -53 0 c-29 0 -56 -3 -59 -7z"/>
<path d="M3670 2890 l0 -270 60 0 59 0 3 121 3 120 74 -120 74 -121 73 0 c41
0 74 2 74 5 0 3 -40 65 -89 138 l-88 133 88 124 c48 69 88 128 89 133 0 4 -31
7 -69 7 l-68 0 -81 -122 -82 -123 0 123 0 122 -60 0 -60 0 0 -270z"/>
<path d="M4162 2893 l3 -268 56 -3 c67 -3 58 -14 170 183 l74 129 5 -154 5
-155 55 0 55 0 3 245 c1 135 0 255 -3 268 -5 21 -10 23 -63 20 l-56 -3 -91
-157 c-49 -87 -93 -158 -97 -158 -5 0 -8 72 -8 160 l0 160 -55 0 -55 0 2 -267z"/>
<path d="M4692 2893 l3 -268 53 -3 c30 -2 59 2 67 8 7 6 50 76 96 157 l84 146
5 -154 5 -154 55 0 55 0 3 245 c1 135 0 255 -3 268 -5 21 -10 23 -63 20 l-56
-3 -90 -157 c-50 -87 -94 -158 -98 -158 -4 0 -8 72 -8 160 l0 160 -55 0 -55 0
2 -267z"/>
<path d="M5410 2890 l0 -271 63 3 62 3 5 114 5 115 70 -115 70 -114 73 -3 c45
-2 72 1 72 8 0 5 -39 68 -86 139 l-86 129 86 120 c47 67 86 126 86 131 0 7
-26 11 -65 11 l-65 0 -77 -117 -78 -116 -5 114 -5 114 -62 3 -63 3 0 -271z"/>
<path d="M8353 3145 c4 -8 43 -66 87 -129 44 -63 80 -117 80 -120 0 -4 -36
-61 -80 -127 -45 -66 -83 -126 -87 -134 -4 -12 8 -15 68 -15 l74 0 75 123 75
122 3 -122 3 -123 59 0 59 0 3 122 3 122 74 -122 74 -122 73 0 c41 0 74 2 74
5 0 3 -39 63 -86 135 -48 71 -84 135 -81 142 2 7 41 66 86 129 44 64 81 119
81 123 0 3 -30 6 -67 6 l-68 -1 -80 -117 -80 -117 -3 118 -3 117 -59 0 -60 0
0 -115 c0 -63 -3 -115 -7 -115 -5 1 -42 51 -83 113 l-75 112 -69 3 c-58 3 -68
1 -63 -13z"/>
<path d="M1060 2259 c-75 -23 -100 -71 -100 -194 0 -96 14 -141 54 -172 32
-26 92 -37 146 -28 36 6 40 10 40 36 0 29 0 29 -63 29 -91 0 -102 14 -102 135
0 121 11 135 102 135 l63 0 0 30 c0 22 -5 30 -17 30 -10 0 -34 2 -53 5 -19 2
-51 -1 -70 -6z"/>
<path d="M1718 2259 c-20 -8 -31 -22 -42 -57 -16 -50 -86 -315 -86 -326 0 -3
18 -6 40 -6 31 0 40 4 40 18 0 9 5 34 11 55 l10 37 59 0 59 0 11 -42 c6 -24
13 -49 15 -55 4 -13 75 -19 75 -6 0 25 -93 360 -103 370 -18 18 -59 23 -89 12z
m60 -139 l20 -80 -44 0 c-24 0 -44 3 -44 8 0 21 35 152 41 152 3 0 16 -36 27
-80z"/>
<path d="M2795 2255 c-73 -26 -100 -89 -93 -216 6 -98 27 -137 90 -163 36 -15
57 -17 102 -12 54 7 56 9 56 37 l0 29 -69 0 c-93 0 -101 11 -101 137 0 120 10
133 105 133 62 0 65 1 65 24 0 30 -3 32 -65 40 -33 4 -64 1 -90 -9z"/>
<path d="M6217 2256 c-51 -19 -75 -42 -87 -85 -14 -52 -12 -186 4 -225 43
-104 209 -114 264 -17 29 51 32 207 4 260 -33 66 -111 94 -185 67z m104 -75
c22 -18 24 -26 24 -114 0 -113 -13 -137 -76 -137 -30 0 -42 6 -55 25 -34 52
-30 189 7 226 24 24 70 24 100 0z"/>
<path d="M6560 2261 l-45 -6 -3 -192 -2 -193 40 0 40 0 0 73 0 72 55 2 c74 2
116 27 135 81 13 37 13 47 0 84 -10 27 -26 48 -45 59 -35 21 -112 30 -175 20z
m138 -73 c16 -16 15 -83 0 -95 -19 -15 -67 -25 -89 -18 -16 5 -19 16 -19 66
l0 59 48 0 c26 0 53 -5 60 -12z"/>
<path d="M7408 2259 c-31 -12 -32 -16 -83 -214 -20 -77 -39 -148 -41 -157 -4
-15 1 -18 34 -18 l39 0 12 55 12 55 60 0 c39 0 61 -4 64 -12 2 -7 9 -32 15
-55 10 -40 13 -43 45 -43 19 0 35 5 35 11 0 28 -92 355 -103 366 -18 18 -59
23 -89 12z m48 -86 c3 -16 12 -52 19 -80 l13 -53 -44 0 c-24 0 -44 3 -44 8 -1
23 35 152 42 152 4 0 10 -12 14 -27z"/>
<path d="M1260 2230 c0 -30 1 -30 55 -30 l55 0 0 -165 0 -165 35 0 35 0 0 165
0 165 50 0 c49 0 50 1 50 30 l0 30 -140 0 -140 0 0 -30z"/>
<path d="M1960 2230 c0 -29 1 -30 50 -30 l50 0 0 -165 0 -165 35 0 35 0 0 165
0 165 55 0 c54 0 55 0 55 30 l0 30 -140 0 -140 0 0 -30z"/>
<path d="M2312 2068 l3 -193 50 0 49 0 61 132 c33 73 63 132 68 133 4 0 7 -61
7 -135 l0 -135 30 0 30 0 0 196 0 195 -47 -3 -48 -3 -65 -143 -65 -142 -3 145
-3 145 -34 0 -35 0 2 -192z"/>
<path d="M3010 2230 c0 -29 1 -30 50 -30 l50 0 0 -166 0 -165 38 3 37 3 3 163
2 162 50 0 c49 0 50 1 50 30 l0 30 -140 0 -140 0 0 -30z"/>
<path d="M3362 2068 l3 -193 46 -3 c29 -2 49 2 56 10 5 7 34 68 64 135 30 67
57 123 62 123 4 0 7 -61 7 -135 l0 -135 30 0 30 0 0 196 0 195 -47 -3 -48 -3
-65 -144 -65 -144 -3 147 -3 146 -34 0 -35 0 2 -192z"/>
<path d="M3760 2065 l0 -195 40 0 39 0 3 87 3 86 58 -86 57 -87 46 0 c53 0 55
-8 -33 112 l-63 88 70 89 c38 49 70 92 70 95 0 3 -18 6 -40 6 -38 0 -42 -3
-105 -87 l-65 -86 0 86 0 87 -40 0 -40 0 0 -195z"/>
<path d="M4130 2065 l0 -195 48 0 49 0 58 128 c32 70 62 131 66 136 5 6 9 -49
9 -127 l0 -137 35 0 35 0 -2 193 -3 192 -49 0 -48 0 -63 -138 c-35 -76 -66
-141 -69 -144 -3 -4 -6 60 -6 140 l0 147 -30 0 -30 0 0 -195z"/>
<path d="M4840 2064 l0 -195 52 3 51 3 61 135 61 135 3 -138 3 -137 34 0 35 0
-2 193 -3 192 -46 3 -45 3 -65 -143 -64 -143 -3 143 -3 142 -34 0 -35 0 0
-196z"/>
<path d="M5240 2065 l0 -195 35 0 35 0 0 85 0 85 80 0 80 0 0 -85 0 -85 35 0
35 0 0 195 0 195 -35 0 -34 0 -3 -77 -3 -78 -75 0 -75 0 -3 78 -3 77 -34 0
-35 0 0 -195z"/>
<path d="M5800 2241 c0 -15 -10 -20 -47 -26 -58 -8 -99 -28 -113 -54 -5 -11
-10 -43 -10 -71 0 -45 4 -56 33 -84 25 -25 44 -34 85 -40 l52 -7 0 -44 c0 -45
0 -45 35 -45 35 0 35 0 35 44 l0 43 59 12 c77 15 111 51 111 117 0 83 -31 115
-124 129 -36 6 -46 11 -46 26 0 15 -7 19 -35 19 -28 0 -35 -4 -35 -19z m-2
-154 c2 -37 -1 -67 -5 -67 -4 0 -25 5 -45 11 -41 11 -55 38 -44 84 6 23 54 47
81 41 6 -2 11 -33 13 -69z m139 58 c26 -7 38 -42 29 -80 -4 -17 -17 -27 -44
-34 -20 -6 -40 -11 -44 -11 -10 0 -11 124 -1 133 4 4 14 5 22 3 9 -2 26 -7 38
-11z"/>
<path d="M6870 2065 l0 -195 35 0 35 0 1 128 0 127 27 -52 c25 -52 27 -53 69
-53 41 0 44 2 70 53 l28 52 3 -127 3 -128 35 0 34 0 -2 193 -3 192 -37 3 -37
3 -47 -93 -47 -93 -46 93 c-45 92 -46 92 -83 92 l-38 0 0 -195z"/>
<path d="M7650 2230 c0 -29 1 -30 50 -30 l50 0 0 -165 0 -165 40 0 40 0 0 165
0 165 50 0 c49 0 50 1 50 30 l0 30 -140 0 -140 0 0 -30z"/>
<path d="M8002 2068 l3 -193 50 -3 50 -3 60 131 c32 72 63 134 67 136 4 3 8
-56 8 -130 l0 -136 30 0 30 0 0 196 0 195 -47 -3 -47 -3 -66 -145 -65 -144 -3
147 -3 147 -34 0 -35 0 2 -192z"/>
<path d="M8407 2253 c-4 -3 -7 -91 -7 -195 l0 -188 40 0 39 0 3 87 3 86 58
-86 57 -87 46 0 c52 0 54 -8 -28 107 -32 44 -58 86 -58 93 0 6 29 49 65 95 36
45 65 86 65 89 0 3 -18 6 -40 6 -38 0 -42 -3 -105 -87 l-65 -86 0 86 0 87 -33
0 c-19 0 -37 -3 -40 -7z"/>
<path d="M8770 2065 l0 -195 48 0 49 0 58 128 c32 70 62 131 67 136 4 6 8 -52
8 -127 l0 -137 35 0 35 0 -2 193 -3 192 -48 0 -48 0 -62 -137 c-34 -75 -65
-140 -69 -144 -5 -4 -8 59 -8 139 l0 147 -30 0 -30 0 0 -195z"/>
<path d="M4525 1938 c-19 -57 -32 -117 -28 -122 4 -3 15 -6 25 -6 13 0 26 17
43 56 14 31 25 63 25 70 0 18 -59 19 -65 2z"/>
<path d="M6230 1615 c0 -4 7 -19 15 -34 16 -33 33 -41 80 -41 47 0 64 8 80 41
20 37 19 39 -8 39 -12 0 -28 -9 -35 -20 -7 -11 -23 -20 -37 -20 -14 0 -29 8
-35 20 -9 18 -60 30 -60 15z"/>
<path d="M972 1313 l3 -198 38 -3 c21 -2 44 1 51 7 7 6 39 70 72 143 l59 132
5 -139 5 -140 30 0 30 0 0 195 0 195 -38 3 c-21 2 -44 -1 -51 -7 -6 -5 -39
-71 -71 -145 -33 -75 -63 -136 -67 -136 -5 0 -8 65 -8 145 l0 145 -30 0 -30 0
2 -197z"/>
<path d="M1497 1503 c-4 -3 -7 -91 -7 -194 0 -214 -7 -199 98 -199 125 0 168
26 179 108 4 31 0 44 -19 67 -24 27 -24 29 -6 47 23 23 25 104 3 135 -9 12
-32 27 -53 33 -41 11 -185 14 -195 3z m174 -63 c23 -13 26 -62 3 -84 -10 -10
-33 -16 -65 -16 l-49 0 0 55 0 55 46 0 c25 0 54 -5 65 -10z m-3 -166 c15 -10
22 -25 22 -49 0 -42 -20 -55 -84 -55 l-46 0 0 60 0 60 43 0 c23 0 53 -7 65
-16z"/>
<path d="M1840 1316 c0 -168 2 -195 16 -200 9 -3 48 -6 87 -6 120 0 167 37
167 130 0 80 -49 120 -145 120 l-55 0 0 75 0 75 -35 0 -35 0 0 -194z m182 -33
c24 -21 23 -68 -2 -93 -14 -14 -33 -20 -65 -20 l-45 0 0 65 0 65 47 0 c29 0
53 -6 65 -17z"/>
<path d="M2170 1310 l0 -200 35 0 35 0 0 200 0 200 -35 0 -35 0 0 -200z"/>
<path d="M2320 1425 c0 -140 29 -171 149 -163 l70 5 3 -76 3 -76 35 0 35 0 0
195 0 195 -35 0 -35 0 -3 -86 c-3 -96 -5 -99 -83 -99 -55 0 -69 22 -69 113 l0
77 -35 0 -35 0 0 -85z"/>
<path d="M2702 1313 l3 -198 41 -3 c25 -2 44 2 50 10 6 7 34 67 64 133 30 66
57 124 62 129 4 6 8 -54 8 -133 l0 -142 33 3 32 3 3 184 c2 127 -1 188 -9 197
-6 8 -28 14 -49 14 -36 0 -37 -1 -73 -77 -20 -43 -51 -109 -69 -148 l-33 -70
-3 148 -3 147 -29 0 -30 0 2 -197z"/>
<path d="M3140 1493 c-53 -27 -70 -71 -70 -183 0 -111 16 -153 71 -182 33 -18
120 -25 153 -12 9 4 16 18 16 34 0 27 -1 27 -51 22 -61 -6 -94 10 -109 51 -15
43 -12 142 4 182 17 39 42 49 111 43 46 -3 46 -3 43 27 -3 30 -4 30 -68 33
-47 2 -75 -3 -100 -15z"/>
<path d="M3466 1497 c-21 -16 -119 -366 -106 -380 4 -5 20 -7 36 -5 29 3 29 5
69 165 22 89 43 165 47 168 8 8 14 -14 58 -202 l32 -133 34 0 c26 0 34 4 34
18 0 9 -20 93 -44 187 -30 111 -51 174 -62 182 -23 17 -75 17 -98 0z"/>
<path d="M3732 1313 l3 -198 38 -3 c21 -2 44 1 51 7 7 6 39 69 72 142 l59 131
5 -138 5 -139 30 0 30 0 0 195 0 195 -41 3 c-25 2 -45 -2 -51 -10 -5 -7 -37
-71 -69 -143 l-59 -130 -5 140 -5 140 -33 3 -32 3 2 -198z"/>
<path d="M4090 1480 c0 -29 1 -30 50 -30 l50 0 0 -170 0 -170 35 0 35 0 2 168
3 167 53 3 c51 3 53 4 50 30 l-3 27 -137 3 -138 3 0 -31z"/>
<path d="M4472 1500 c-38 -16 -52 -67 -52 -190 0 -174 19 -200 145 -200 79 0
95 6 95 36 0 23 -3 24 -68 24 -40 0 -73 5 -80 12 -7 7 -12 34 -12 60 l0 48 76
0 75 0 -3 28 c-3 26 -5 27 -75 30 l-73 3 0 43 c0 52 7 56 96 56 65 0 65 0 62
28 -3 27 -4 27 -83 29 -44 1 -90 -2 -103 -7z"/>
<path d="M4816 1497 c-12 -8 -34 -74 -65 -192 -26 -99 -46 -183 -44 -187 2 -5
19 -8 37 -8 l34 0 31 134 c43 180 51 209 59 201 3 -3 24 -79 47 -168 40 -160
40 -162 69 -165 16 -2 32 0 36 5 13 14 -85 365 -106 380 -23 17 -75 17 -98 0z"/>
<path d="M5080 1316 c0 -222 -8 -206 101 -206 123 0 173 39 172 132 -1 42 -6
55 -31 81 -26 26 -40 31 -99 36 l-68 6 -3 73 -3 72 -34 0 -35 0 0 -194z m182
-33 c10 -9 18 -30 18 -49 0 -42 -30 -64 -87 -64 l-43 0 0 65 0 65 47 0 c29 0
53 -6 65 -17z"/>
<path d="M5424 1497 c-2 -7 -3 -96 -2 -197 l3 -185 35 0 35 0 3 88 3 87 74 0
75 0 0 -90 0 -90 35 0 35 0 0 200 0 200 -35 0 -35 0 0 -80 0 -80 -75 0 -75 0
0 80 0 80 -35 0 c-20 0 -38 -6 -41 -13z"/>
<path d="M5862 1490 c-47 -29 -62 -73 -62 -182 0 -151 43 -203 162 -195 99 6
138 62 138 197 0 138 -39 192 -143 198 -50 2 -69 -1 -95 -18z m133 -62 c49
-44 45 -202 -7 -241 -35 -26 -83 -16 -103 23 -20 38 -20 162 0 200 24 46 69
53 110 18z"/>
<path d="M6174 1497 c-2 -7 -3 -96 -2 -197 l3 -185 49 0 49 0 59 130 c32 71
63 134 68 139 7 7 10 -42 10 -132 l0 -142 30 0 30 0 -2 198 -3 197 -43 3 -42
3 -39 -83 c-21 -46 -52 -112 -69 -148 l-31 -65 0 148 -1 147 -30 0 c-17 0 -33
-6 -36 -13z"/>
<path d="M6670 1480 c0 -29 1 -30 50 -30 l50 0 0 -170 0 -170 35 0 35 0 2 168
3 167 53 3 c51 3 53 4 50 30 l-3 27 -137 3 -138 3 0 -31z"/>
<path d="M7052 1500 c-38 -16 -52 -67 -52 -190 0 -174 19 -200 145 -200 79 0
95 6 95 36 0 23 -3 24 -64 24 -92 0 -96 3 -96 66 l0 54 76 0 75 0 -3 28 c-3
26 -5 27 -75 30 l-73 3 0 43 c0 52 7 56 96 56 65 0 65 0 62 28 -3 27 -4 27
-83 29 -44 1 -90 -2 -103 -7z"/>
<path d="M7290 1502 c0 -4 25 -48 56 -96 32 -52 53 -95 49 -104 -3 -8 -28 -52
-55 -98 -28 -45 -50 -85 -50 -88 0 -3 16 -6 35 -6 31 0 39 5 65 48 58 95 51
93 98 19 38 -61 45 -67 75 -67 19 0 36 3 39 6 4 3 -21 48 -53 100 l-60 95 50
83 c72 118 72 118 25 114 -36 -3 -41 -7 -74 -65 -19 -34 -37 -63 -40 -63 -3 0
-23 29 -45 65 -37 62 -41 65 -77 65 -21 0 -38 -4 -38 -8z"/>
<path d="M7665 1498 c-3 -8 -4 -97 -3 -198 l3 -185 35 0 35 0 3 88 3 87 74 0
75 0 0 -90 0 -90 35 0 35 0 0 200 0 200 -35 0 -35 0 0 -80 0 -80 -75 0 -74 0
-3 78 -3 77 -33 3 c-20 2 -34 -2 -37 -10z"/>
<path d="M8052 1313 l3 -198 45 0 44 0 61 132 c34 73 64 135 68 139 4 4 7 -56
7 -134 l0 -142 30 0 30 0 -2 198 -3 197 -43 0 -43 0 -62 -137 c-34 -75 -65
-140 -69 -144 -5 -4 -8 59 -8 139 l0 147 -30 0 -30 0 2 -197z"/>
<path d="M8430 1310 l0 -200 35 0 34 0 3 91 3 92 63 -92 c62 -89 64 -91 103
-91 21 0 39 5 39 10 0 6 -29 51 -65 100 -36 49 -65 93 -65 96 0 3 29 44 65 89
36 46 65 88 65 94 0 6 -17 11 -37 11 -36 -1 -42 -6 -103 -88 l-65 -87 -3 88
-3 87 -34 0 -35 0 0 -200z"/>
<path d="M8777 1503 c-4 -3 -7 -88 -7 -188 0 -204 1 -209 66 -203 l38 3 59
130 c32 72 63 134 68 139 5 6 9 -44 9 -132 l0 -142 30 0 30 0 -2 198 -3 197
-44 0 -44 0 -66 -145 -66 -145 -3 148 -3 147 -28 0 c-15 0 -31 -3 -34 -7z"/>
</g>
</svg>
